<?xml version="1.0" encoding="UTF-8" standalone="no"?>
<svg
   xmlns:dc="http://purl.org/dc/elements/1.1/"
   xmlns:cc="http://creativecommons.org/ns#"
   xmlns:rdf="http://www.w3.org/1999/02/22-rdf-syntax-ns#"
   xmlns:svg="http://www.w3.org/2000/svg"
   xmlns="http://www.w3.org/2000/svg"
   viewBox="0 0 1100.152 812.38934"
   height="812.38934"
   width="1100.152"
   xml:space="preserve"
   id="svg2"
   version="1.1"><metadata
     id="metadata8"><rdf:RDF><cc:Work
         rdf:about=""><dc:format>image/svg+xml</dc:format><dc:type
           rdf:resource="http://purl.org/dc/dcmitype/StillImage" /></cc:Work></rdf:RDF></metadata><defs
     id="defs6"><clipPath
       id="clipPath18"
       clipPathUnits="userSpaceOnUse"><path
         id="path16"
         d="M 0,609.292 H 825.114 V 0 H 0 Z" /></clipPath></defs><g
     transform="matrix(1.3333333,0,0,-1.3333333,0,812.38933)"
     id="g10"><g
       id="g12"><g
         clip-path="url(#clipPath18)"
         id="g14"><g
           transform="translate(184.873,34.4658)"
           id="g20"><path
             id="path22"
             style="fill:#cea220;fill-opacity:1;fill-rule:nonzero;stroke:none"
             d="m 0,0 c -0.338,0 -0.678,0.014 -1.021,0.044 -27.835,2.344 -66.898,25.09 -116.105,67.605 -35.69,30.836 -63.377,60.542 -64.538,61.792 -2.3,2.476 -3.45,5.808 -3.167,9.176 0.284,3.369 1.976,6.461 4.658,8.517 3.65,2.797 85.313,65.058 150.795,88.574 -20.272,64.982 -24.731,154.515 -24.921,158.521 -0.161,3.376 1.111,6.664 3.501,9.054 2.39,2.39 5.677,3.665 9.054,3.501 4.215,-0.2 103.974,-5.166 169.333,-28.528 6.241,-2.23 9.492,-9.097 7.261,-15.339 -2.23,-6.24 -9.096,-9.492 -15.339,-7.26 -48.375,17.29 -119.586,24.105 -148.968,26.284 2.194,-29.552 9.075,-101.415 26.586,-149.797 1.129,-3.119 0.917,-6.564 -0.585,-9.52 -1.502,-2.957 -4.161,-5.159 -7.344,-6.086 C -60.73,202.003 -128.733,154.95 -154.804,136.048 -118.531,98.82 -41.074,27.503 0.994,23.958 7.598,23.402 12.5,17.598 11.944,10.994 11.416,4.732 6.171,0.001 0,0" /></g><g
           transform="translate(271.8188,177.3608)"
           id="g24"><path
             id="path26"
             style="fill:#cea220;fill-opacity:1;fill-rule:nonzero;stroke:none"
             d="m 0,0 c -10.753,0 -21.502,1.402 -31.926,4.202 -20.653,5.548 -39.605,16.515 -54.806,31.717 -13.323,13.321 -24.19,36.023 -33.224,69.404 -1.731,6.398 2.052,12.987 8.449,14.719 6.399,1.728 12.987,-2.052 14.718,-8.449 9.714,-35.896 20.059,-51.736 27.027,-58.703 24.646,-24.646 59.59,-34.374 93.474,-26.019 6.435,1.586 12.937,-2.346 14.523,-8.78 C 39.821,11.657 35.891,5.154 29.456,3.568 19.804,1.189 9.901,0 0,0" /></g><g
           transform="translate(298.8129,180.7236)"
           id="g28"><path
             id="path30"
             style="fill:#cea220;fill-opacity:1;fill-rule:nonzero;stroke:none"
             d="m 0,0 c -4.98,0 -9.632,3.123 -11.345,8.095 -12.729,36.947 -46.108,62.94 -85.037,66.219 -9.344,0.783 -27.08,-1.265 -58.541,-15.508 -6.037,-2.733 -13.148,-0.055 -15.881,5.983 -2.733,6.037 -0.055,13.147 5.983,15.88 29.442,13.331 52.487,19.077 70.454,17.56 C -45.972,94.152 -4.477,61.841 11.346,15.912 13.505,9.646 10.175,2.816 3.909,0.658 2.615,0.212 1.296,0 0,0" /></g><g
           transform="translate(640.2411,34.4663)"
           id="g32"><path
             id="path34"
             style="fill:#cea220;fill-opacity:1;fill-rule:nonzero;stroke:none"
             d="m 0,0 c -6.171,-0.001 -11.417,4.731 -11.944,10.993 -0.556,6.604 4.346,12.409 10.95,12.965 42.101,3.547 119.539,74.862 155.799,112.088 -26.07,18.902 -94.076,65.956 -144.006,80.491 -3.184,0.927 -5.842,3.13 -7.344,6.086 -1.502,2.956 -1.714,6.402 -0.586,9.52 17.527,48.426 24.4,120.256 26.589,149.799 -29.382,-2.18 -100.596,-8.994 -148.97,-26.286 -6.241,-2.231 -13.108,1.02 -15.339,7.261 -2.231,6.241 1.02,13.108 7.261,15.339 65.358,23.363 165.118,28.329 169.333,28.528 3.382,0.165 6.664,-1.111 9.054,-3.501 2.391,-2.39 3.662,-5.678 3.501,-9.054 -0.19,-4.006 -4.65,-93.539 -24.922,-158.522 65.483,-23.516 147.147,-85.776 150.796,-88.573 2.683,-2.056 4.374,-5.149 4.658,-8.517 0.284,-3.369 -0.866,-6.701 -3.167,-9.177 C 180.502,128.191 152.815,98.485 117.125,67.649 67.918,25.134 28.855,2.388 1.021,0.043 0.679,0.014 0.338,0 0,0" /></g><g
           transform="translate(553.2934,177.3613)"
           id="g36"><path
             id="path38"
             style="fill:#cea220;fill-opacity:1;fill-rule:nonzero;stroke:none"
             d="m 0,0 c -9.9,0 -19.802,1.189 -29.455,3.567 -6.434,1.586 -10.365,8.089 -8.779,14.523 1.586,6.435 8.086,10.366 14.523,8.78 33.888,-8.352 68.83,1.374 93.474,26.019 6.967,6.968 17.312,22.808 27.025,58.703 1.731,6.397 8.322,10.181 14.718,8.449 6.397,-1.731 10.18,-8.32 8.449,-14.718 C 110.923,71.943 100.056,49.241 86.733,35.919 71.532,20.717 52.581,9.75 31.928,4.202 21.504,1.402 10.753,0 0,0" /></g><g
           transform="translate(526.2997,180.7246)"
           id="g40"><path
             id="path42"
             style="fill:#cea220;fill-opacity:1;fill-rule:nonzero;stroke:none"
             d="m 0,0 c -1.297,0 -2.615,0.212 -3.91,0.658 -6.266,2.158 -9.595,8.988 -7.437,15.254 15.824,45.93 57.32,78.241 105.716,82.317 17.965,1.516 41.009,-4.228 70.453,-17.56 6.038,-2.733 8.716,-9.843 5.983,-15.88 -2.734,-6.037 -9.844,-8.716 -15.881,-5.983 C 123.462,73.05 105.725,75.104 96.384,74.314 57.454,71.035 24.074,45.043 11.345,8.095 9.632,3.123 4.979,0 0,0" /></g><g
           transform="translate(411.8315,407.6772)"
           id="g44"><path
             id="path46"
             style="fill:#cea220;fill-opacity:1;fill-rule:nonzero;stroke:none"
             d="m 0,0 c -18.783,0 -27.531,-9.84 -27.531,-30.968 0,-24.239 12.608,-44.717 27.531,-44.717 14.923,0 27.53,20.478 27.53,44.717 C 27.53,-9.84 18.782,0 0,0 m 0,-99.685 c -14.386,0 -28.163,7.928 -37.797,21.751 -8.856,12.707 -13.734,29.386 -13.734,46.966 C -51.531,3.451 -32.267,24 0,24 32.266,24 51.53,3.451 51.53,-30.968 51.53,-48.548 46.652,-65.227 37.796,-77.934 28.162,-91.757 14.386,-99.685 0,-99.685" /></g><g
           transform="translate(240.7758)"
           id="g48"><path
             id="path50"
             style="fill:#cea220;fill-opacity:1;fill-rule:nonzero;stroke:none"
             d="m 0,0 c -20.747,0 -38.946,8.259 -50.189,23.542 -13.059,17.748 -13.64,40.608 -1.517,59.657 24.616,38.683 65.779,46.054 98.854,51.976 14.626,2.619 28.442,5.093 36.068,9.833 4.198,2.61 18.217,16.291 22.376,82.777 1.847,29.539 0.961,57.634 0.478,68.617 -11.285,10.559 -42.44,42.879 -47.563,82.148 -12.251,93.919 28.949,132.032 56.211,157.253 11.455,10.597 20.503,18.967 21.463,27.291 1.143,9.896 -9.382,21.85 -13.16,25.258 -4.907,4.427 -5.327,12.005 -0.918,16.93 4.411,4.924 11.956,5.369 16.895,0.979 2.443,-2.172 23.796,-21.914 21.025,-45.919 -1.979,-17.154 -15.108,-29.298 -29.007,-42.156 -26.445,-24.465 -59.357,-54.912 -48.711,-136.532 4.949,-37.933 42.839,-70.158 43.221,-70.479 2.519,-2.116 4.059,-5.174 4.259,-8.458 0.091,-1.502 2.212,-37.227 -0.24,-76.43 -3.536,-56.527 -14.546,-89.78 -33.658,-101.661 -11.535,-7.171 -26.816,-9.907 -44.51,-13.075 -29.939,-5.361 -63.873,-11.437 -82.835,-41.237 -6.68,-10.495 -6.449,-22.968 0.601,-32.55 3.492,-4.748 17.216,-19.607 47.199,-11.487 20.143,5.455 51.725,28.085 82.268,49.969 40.341,28.905 78.445,56.207 107.321,59.526 6.589,0.76 12.535,-3.968 13.292,-10.551 0.757,-6.584 -3.968,-12.535 -10.552,-13.292 C 185.976,109.321 146.987,81.384 112.589,56.737 78.829,32.547 46.941,9.699 22.616,3.112 14.891,1.02 7.288,0 0,0" /></g><g
           transform="translate(582.8846)"
           id="g52"><path
             id="path54"
             style="fill:#cea220;fill-opacity:1;fill-rule:nonzero;stroke:none"
             d="m 0,0 c -7.289,0 -14.89,1.019 -22.616,3.112 -24.325,6.587 -56.212,29.435 -89.972,53.625 -34.398,24.647 -73.387,52.584 -96.082,55.192 -6.584,0.757 -11.308,6.708 -10.552,13.292 0.757,6.583 6.703,11.31 13.292,10.551 28.876,-3.319 66.98,-30.621 107.321,-59.526 30.542,-21.885 62.124,-44.514 82.267,-49.969 29.983,-8.122 43.708,6.739 47.201,11.487 7.05,9.583 7.28,22.055 0.601,32.55 -18.964,29.8 -52.898,35.876 -82.837,41.237 -17.693,3.168 -32.974,5.904 -44.51,13.075 -19.111,11.881 -30.121,45.134 -33.657,101.661 -2.452,39.203 -0.331,74.928 -0.24,76.43 0.201,3.284 1.74,6.342 4.259,8.458 0.37,0.313 38.298,32.743 43.22,70.48 10.646,81.619 -22.265,112.067 -48.711,136.532 -13.899,12.857 -27.026,25.003 -29.006,42.157 -2.771,24.003 18.58,43.745 21.024,45.917 4.953,4.403 12.538,3.957 16.941,-0.997 4.403,-4.954 3.957,-12.538 -0.997,-16.941 -3.744,-3.379 -14.269,-15.332 -13.126,-25.228 0.96,-8.324 10.008,-16.694 21.463,-27.291 27.262,-25.221 68.461,-63.335 56.211,-157.253 -5.122,-39.267 -36.275,-71.587 -47.562,-82.148 -0.483,-11.02 -1.371,-39.26 0.491,-68.829 4.175,-66.309 18.171,-79.961 22.361,-82.565 7.627,-4.741 21.443,-7.215 36.069,-9.834 C -14.072,129.253 27.09,121.882 51.708,83.2 63.83,64.15 63.249,41.291 50.191,23.542 38.949,8.261 20.746,0 0,0" /></g></g></g></g></svg>