<?xml version="1.0" encoding="UTF-8" standalone="no"?>
<svg
   xmlns:dc="http://purl.org/dc/elements/1.1/"
   xmlns:cc="http://creativecommons.org/ns#"
   xmlns:rdf="http://www.w3.org/1999/02/22-rdf-syntax-ns#"
   xmlns:svg="http://www.w3.org/2000/svg"
   xmlns="http://www.w3.org/2000/svg"
   viewBox="0 0 645.55731 939.172"
   height="939.172"
   width="645.55731"
   xml:space="preserve"
   id="svg2"
   version="1.1"><metadata
     id="metadata8"><rdf:RDF><cc:Work
         rdf:about=""><dc:format>image/svg+xml</dc:format><dc:type
           rdf:resource="http://purl.org/dc/dcmitype/StillImage" /></cc:Work></rdf:RDF></metadata><defs
     id="defs6"><clipPath
       id="clipPath18"
       clipPathUnits="userSpaceOnUse"><path
         id="path16"
         d="M 0,704.379 H 484.168 V 0 H 0 Z" /></clipPath></defs><g
     transform="matrix(1.3333333,0,0,-1.3333333,0,939.172)"
     id="g10"><g
       id="g12"><g
         clip-path="url(#clipPath18)"
         id="g14"><g
           transform="translate(118.5686,306.2754)"
           id="g20"><path
             id="path22"
             style="fill:#cea220;fill-opacity:1;fill-rule:nonzero;stroke:none"
             d="m 0,0 c -6.628,0 -12,5.373 -12,12 v 273.155 c 0,29.295 23.833,53.128 53.127,53.128 29.295,0 53.129,-23.833 53.129,-53.128 V 23.813 c 0,-6.626 -5.373,-12 -12,-12 -6.628,0 -12,5.374 -12,12 v 261.342 c 0,16.062 -13.067,29.128 -29.129,29.128 C 25.066,314.283 12,301.217 12,285.155 V 12 C 12,5.373 6.627,0 0,0" /></g><g
           transform="translate(283.0798,311.0615)"
           id="g24"><path
             id="path26"
             style="fill:#cea220;fill-opacity:1;fill-rule:nonzero;stroke:none"
             d="m 0,0 c -6.627,0 -12,5.372 -12,12 v 328.189 c 0,16.061 -13.067,29.128 -29.128,29.128 -16.061,0 -29.127,-13.067 -29.127,-29.128 V 19.027 c 0,-6.627 -5.373,-12 -12,-12 -6.628,0 -12,5.373 -12,12 v 321.162 c 0,29.294 23.833,53.128 53.127,53.128 29.295,0 53.128,-23.834 53.128,-53.128 L 12,12 C 12,5.372 6.627,0 0,0" /></g><g
           transform="translate(365.3357,282.0078)"
           id="g28"><path
             id="path30"
             style="fill:#cea220;fill-opacity:1;fill-rule:nonzero;stroke:none"
             d="m 0,0 c -6.628,0 -12,5.373 -12,12 v 297.423 c 0,16.061 -13.066,29.128 -29.127,29.128 -16.062,0 -29.129,-13.067 -29.129,-29.128 V 41.054 c 0,-6.627 -5.372,-12 -12,-12 -6.627,0 -12,5.373 -12,12 v 268.369 c 0,29.295 23.834,53.128 53.129,53.128 29.294,0 53.127,-23.833 53.127,-53.128 V 12 C 12,5.373 6.627,0 0,0" /></g><g
           transform="translate(256.3737)"
           id="g32"><path
             id="path34"
             style="fill:#cea220;fill-opacity:1;fill-rule:nonzero;stroke:none"
             d="m 0,0 c -120.459,0 -218.486,97.9 -218.701,218.311 -5.194,80.292 -14.95,132.065 -32.61,173.057 -13.638,31.654 3.97,43.36 9.691,46.194 23.178,11.476 68.359,-7.574 91.878,-49.337 13.986,-24.835 20.184,-61.7 26.746,-100.728 8.027,-47.739 17.124,-101.848 41.944,-140.296 14.765,-22.877 42.121,-39.182 71.393,-42.554 28.313,-3.261 55.083,5.747 75.382,25.363 14.747,14.254 23.236,31.447 24.549,49.721 1.221,16.996 -3.966,34.301 -14.606,48.727 -11.686,15.837 -27.711,26.298 -43.966,28.697 -14.629,2.16 -29.254,-2.134 -43.466,-12.759 -16.984,-12.698 -23.518,-31.128 -17.476,-49.298 4.513,-13.574 17.168,-27.269 35.266,-27.269 13.683,0 19.915,8.377 19.915,16.159 0,3.288 -1.162,6.25 -3.272,8.341 -2.663,2.64 -6.929,4.034 -12.336,4.034 -6.627,0 -12,5.373 -12,12 0,6.627 5.373,12 12,12 14.995,0 24.172,-5.974 29.229,-10.986 6.693,-6.633 10.379,-15.65 10.379,-25.389 0,-19.468 -15.391,-40.159 -43.915,-40.159 -26.025,0 -49.35,17.561 -58.04,43.696 -9.32,28.033 0.596,57.19 25.879,76.093 19.245,14.388 40.456,20.364 61.342,17.279 22.532,-3.326 44.319,-17.246 59.774,-38.191 14.032,-19.025 20.861,-42 19.231,-64.693 C 112.468,153.747 101.468,131.18 82.401,112.752 56.843,88.053 23.174,76.716 -12.405,80.805 c -36.771,4.235 -69.972,24.191 -88.812,53.381 -27.502,42.604 -37.035,99.305 -45.446,149.331 -6.205,36.901 -12.065,71.754 -23.991,92.931 -18.721,33.244 -51.497,43.972 -60.314,39.608 -2.352,-1.165 -1.653,-7.413 1.698,-15.192 18.839,-43.729 29.17,-97.977 34.544,-181.391 0.017,-0.257 0.025,-0.514 0.025,-0.772 C -194.701,111.343 -107.358,24 0,24 c 107.355,0 194.694,87.343 194.694,194.701 0.008,18.366 -3.09,33.683 -6.369,49.899 -5.605,27.715 -11.401,56.375 -1.961,100.765 1.197,5.631 3.101,12.564 5.306,20.591 4.342,15.811 9.746,35.486 11.544,52.397 1.636,15.384 -0.143,26.104 -4.879,29.413 -10.056,7.02 -16.174,5.403 -20.379,3.209 -15.166,-7.909 -30.503,-39.287 -42.076,-86.089 -9.638,-38.977 -14.476,-80.023 -14.476,-92.05 0,-6.627 -5.372,-12 -12,-12 -6.627,0 -12,5.373 -12,12 0,12.705 4.452,54.438 15.178,97.81 13.808,55.844 32.07,90.03 54.278,101.61 10.008,5.218 25.977,8.619 45.215,-4.814 27.149,-18.961 13.04,-70.333 2.738,-107.842 -2.105,-7.665 -3.923,-14.283 -4.974,-19.227 -8.404,-39.52 -3.346,-64.534 2.01,-91.016 3.369,-16.662 6.853,-33.892 6.845,-54.661 C 218.694,98.109 120.588,0 0,0" /></g></g></g></g></svg>