<?xml version="1.0" encoding="utf-8"?>
<!-- Generator: Adobe Illustrator 20.1.0, SVG Export Plug-In . SVG Version: 6.00 Build 0)  -->
<svg version="1.1"
	 id="svg2" xmlns:cc="http://creativecommons.org/ns#" xmlns:dc="http://purl.org/dc/elements/1.1/" xmlns:rdf="http://www.w3.org/1999/02/22-rdf-syntax-ns#" xmlns:svg="http://www.w3.org/2000/svg"
	 xmlns="http://www.w3.org/2000/svg" xmlns:xlink="http://www.w3.org/1999/xlink" x="0px" y="0px" width="645.6px" height="939.2px"
	 viewBox="0 0 645.6 939.2" style="enable-background:new 0 0 645.6 939.2;" xml:space="preserve">
<style type="text/css">
	.st0{fill:#FFFFFF;}
</style>
<g id="g14">
	<g id="g20" transform="translate(118.5686,306.2754)">
		<path id="path22" class="st0" d="M39.5,224.5c-8.8,0-16-7.2-16-16v-364.2c0-39.1,31.8-70.8,70.8-70.8c39.1,0,70.8,31.8,70.8,70.8
			v348.5c0,8.8-7.2,16-16,16c-8.8,0-16-7.2-16-16v-348.5c0-21.4-17.4-38.8-38.8-38.8c-21.4,0-38.8,17.4-38.8,38.8v364.2
			C55.5,217.4,48.4,224.5,39.5,224.5"/>
	</g>
	<g id="g24" transform="translate(283.0798,311.0615)">
		<path id="path26" class="st0" d="M94.4,213.4c-8.8,0-16-7.2-16-16v-437.6c0-21.4-17.4-38.8-38.8-38.8S0.7-261.6,0.7-240.2V188
			c0,8.8-7.2,16-16,16c-8.8,0-16-7.2-16-16v-428.2c0-39.1,31.8-70.8,70.8-70.8c39.1,0,70.8,31.8,70.8,70.8v437.6
			C110.4,206.2,103.2,213.4,94.4,213.4"/>
	</g>
	<g id="g28" transform="translate(365.3357,282.0078)">
		<path id="path30" class="st0" d="M121.8,281.2c-8.8,0-16-7.2-16-16v-396.6c0-21.4-17.4-38.8-38.8-38.8
			c-21.4,0-38.8,17.4-38.8,38.8v357.8c0,8.8-7.2,16-16,16c-8.8,0-16-7.2-16-16v-357.8c0-39.1,31.8-70.8,70.8-70.8
			c39.1,0,70.8,31.8,70.8,70.8v396.6C137.8,274,130.6,281.2,121.8,281.2"/>
	</g>
	<g id="g32" transform="translate(256.3737)">
		<path id="path34" class="st0" d="M85.5,939.2c-160.6,0-291.3-130.5-291.6-291.1c-6.9-107.1-19.9-176.1-43.5-230.7
			c-18.2-42.2,5.3-57.8,12.9-61.6c30.9-15.3,91.1,10.1,122.5,65.8c18.6,33.1,26.9,82.3,35.7,134.3c10.7,63.7,22.8,135.8,55.9,187.1
			c19.7,30.5,56.2,52.2,95.2,56.7c37.8,4.3,73.4-7.7,100.5-33.8c19.7-19,31-41.9,32.7-66.3c1.6-22.7-5.3-45.7-19.5-65
			c-15.6-21.1-36.9-35.1-58.6-38.3c-19.5-2.9-39,2.8-58,17c-22.6,16.9-31.4,41.5-23.3,65.7c6,18.1,22.9,36.4,47,36.4
			c18.2,0,26.6-11.2,26.6-21.5c0-4.4-1.5-8.3-4.4-11.1c-3.6-3.5-9.2-5.4-16.4-5.4c-8.8,0-16-7.2-16-16s7.2-16,16-16
			c20,0,32.2,8,39,14.6c8.9,8.8,13.8,20.9,13.8,33.9c0,26-20.5,53.5-58.6,53.5c-34.7,0-65.8-23.4-77.4-58.3
			c-12.4-37.4,0.8-76.3,34.5-101.5c25.7-19.2,53.9-27.2,81.8-23c30,4.4,59.1,23,79.7,50.9c18.7,25.4,27.8,56,25.6,86.3
			c-2.3,32.4-17,62.4-42.4,87c-34.1,32.9-79,48-126.4,42.6c-49-5.6-93.3-32.3-118.4-71.2c-36.7-56.8-49.4-132.4-60.6-199.1
			c-8.3-49.2-16.1-95.7-32-123.9c-25-44.3-68.7-58.6-80.4-52.8c-3.1,1.6-2.2,9.9,2.3,20.3c25.1,58.3,38.9,130.6,46.1,241.9
			c0,0.3,0,0.7,0,1c0,143.1,116.5,259.6,259.6,259.6c143.1,0,259.6-116.5,259.6-259.6c0-24.5-4.1-44.9-8.5-66.5
			c-7.5-37-15.2-75.2-2.6-134.4c1.6-7.5,4.1-16.8,7.1-27.5c5.8-21.1,13-47.3,15.4-69.9c2.2-20.5-0.2-34.8-6.5-39.2
			c-13.4-9.4-21.6-7.2-27.2-4.3c-20.2,10.5-40.7,52.4-56.1,114.8c-12.9,52-19.3,106.7-19.3,122.7c0,8.8-7.2,16-16,16
			c-8.8,0-16-7.2-16-16c0-16.9,5.9-72.6,20.2-130.4c18.4-74.5,42.8-120,72.4-135.5c13.3-7,34.6-11.5,60.3,6.4
			c36.2,25.3,17.4,93.8,3.7,143.8c-2.8,10.2-5.2,19-6.6,25.6c-11.2,52.7-4.5,86,2.7,121.4c4.5,22.2,9.1,45.2,9.1,72.9
			C377,808.4,246.2,939.2,85.5,939.2"/>
	</g>
</g>
</svg>
