<?xml version="1.0" encoding="utf-8"?>
<!-- Generator: Adobe Illustrator 20.1.0, SVG Export Plug-In . SVG Version: 6.00 Build 0)  -->
<svg version="1.1"
	 id="svg2" xmlns:cc="http://creativecommons.org/ns#" xmlns:dc="http://purl.org/dc/elements/1.1/" xmlns:rdf="http://www.w3.org/1999/02/22-rdf-syntax-ns#" xmlns:svg="http://www.w3.org/2000/svg"
	 xmlns="http://www.w3.org/2000/svg" xmlns:xlink="http://www.w3.org/1999/xlink" x="0px" y="0px" width="872px" height="872.2px"
	 viewBox="0 0 872 872.2" style="enable-background:new 0 0 872 872.2;" xml:space="preserve">
<style type="text/css">
	.st0{fill:#FFFFFF;}
</style>
<g id="g20" transform="translate(136.8203,201.352)">
	<path id="path22" class="st0" d="M45.6,402.3c-13.7,0-22.8-0.7-24.2-0.9C13.3,400.8,7,394,6.8,385.9c-0.1-3.3-1-82.8,54.7-176.6
		c30.9-52.1,75.6-87.3,136.7-107.7c42.3-14.1,59.5-39.8,59.5-88.6c0-8.8,7.2-16,16-16s16,7.2,16,16c0,62.7-25.9,100.5-81.4,119
		c-53.5,17.8-92.5,48.5-119.3,93.6c-37.4,63-46.9,118.9-49.4,144.6c33.3,0.5,111.7-3,146.8-44.4c47.6-56.2,65.5-118.7,71.9-150.9
		c1.7-8.7,10.2-14.3,18.8-12.5c8.7,1.7,14.3,10.2,12.5,18.8c-7.1,35.3-26.7,103.7-78.9,165.3C169.2,395.8,86.6,402.3,45.6,402.3"/>
</g>
<g id="g24" transform="translate(517.1992,201.352)">
	<path id="path26" class="st0" d="M172.4,402.3c-41,0-123.6-6.6-165.2-55.8c-53.1-62.8-68.8-125.9-76-168c-1.5-8.7,4.4-17,13.1-18.5
		c8.7-1.5,17,4.4,18.5,13.1c4.2,24.4,15.2,89.3,68.9,152.7c35,41.4,113.4,44.9,146.7,44.4c-2.5-25.8-12.2-82-49.3-144.6
		C102.2,180.4,63.2,149.8,9.6,132c-55.5-18.5-81.4-56.3-81.4-119c0-8.8,7.2-16,16-16c8.8,0,16,7.2,16,16c0,48.9,17.2,74.6,59.5,88.6
		c61.1,20.4,105.8,55.6,136.7,107.7c55.7,93.8,54.7,173.3,54.7,176.6c-0.2,8.2-6.5,14.9-14.6,15.6
		C195.2,401.6,186.1,402.3,172.4,402.3"/>
</g>
<g id="g28" transform="translate(642.0185)">
	<path id="path30" class="st0" d="M214,872.2h-840c-8.8,0-16-7.2-16-16s7.2-16,16-16h840c8.8,0,16,7.2,16,16S222.8,872.2,214,872.2"
		/>
</g>
<g id="g32" transform="translate(204.0859,99.8018)">
	<path id="path34" class="st0" d="M68,639.3c-5.7,0-11.2-3.1-14.1-8.4c-4.2-7.8-1.3-17.5,6.5-21.7c48.8-26.3,74.5-91.9,78.4-200.7
		c0.3-8.8,7.7-15.7,16.6-15.4c8.8,0.3,15.7,7.7,15.4,16.6c-2.2,60.4-10.6,108-25.8,145.3c-15.6,38.3-38.9,66-69.3,82.4
		C73.2,638.7,70.6,639.3,68,639.3"/>
</g>
<g id="g36" transform="translate(449.9316,99.8018)">
	<path id="path38" class="st0" d="M150,639.3c-2.6,0-5.2-0.6-7.6-1.9C112,621,88.7,593.3,73.1,555c-15.2-37.4-23.7-84.9-25.8-145.3
		c-0.3-8.8,6.6-16.2,15.4-16.6c0.2,0,0.4,0,0.6,0c8.6,0,15.7,6.8,16,15.4c3.9,108.7,29.5,174.4,78.4,200.7
		c7.8,4.2,10.7,13.9,6.5,21.7C161.2,636.2,155.7,639.3,150,639.3"/>
</g>
<g id="g40" transform="translate(162.79,24)">
	<path id="path42" class="st0" d="M54.3,816.2h188c-32-28-75.3-57.3-123.8-83.5c-41.8-22.6-102.5-49.5-154.2-49.5
		c-17.9,0-29.7,3.3-36.3,6c1.3,6.2,4.8,16.2,13.4,29.5C-33.4,757.4,15.9,792.7,54.3,816.2 M281.7,848.2H49.8c-2.9,0-5.8-0.8-8.3-2.3
		c-152.9-92.1-147.3-160.6-146.2-168.1c0.6-3.8,2.5-7.4,5.5-9.9c2-1.7,21.2-16.7,63.4-16.7c46.9,0,103.9,18,169.4,53.4
		c67.3,36.4,125.6,79,159.9,116.9c4.2,4.7,5.3,11.4,2.8,17.2C293.7,844.4,288,848.2,281.7,848.2"/>
</g>
<g id="g44" transform="translate(350.206,24)">
	<path id="path46" class="st0" d="M116.7,816.2h188c38.4-23.4,87.7-58.7,113-97.5c8.6-13.2,12-23.3,13.4-29.5
		c-6.7-2.7-18.4-6-36.3-6c-51.7,0-112.4,26.9-154.2,49.5C192.1,758.9,148.8,788.2,116.7,816.2 M309.2,848.2H77.4
		c-6.3,0-12.1-3.7-14.6-9.5c-2.6-5.8-1.5-12.5,2.8-17.2c34.3-37.9,92.5-80.5,159.9-116.9c65.5-35.4,122.5-53.4,169.4-53.4
		c42.2,0,61.3,15,63.4,16.7c3,2.5,4.9,6,5.5,9.9c1.1,7.5,6.7,76-146.2,168.1C315,847.4,312.1,848.2,309.2,848.2"/>
</g>
<g id="g48" transform="translate(327.0078,630.1133)">
	<path id="path50" class="st0" d="M109-598.1c-38.7,0-58.4,24.2-58.4,71.9c0,53.6,26.7,98.9,58.4,98.9s58.4-45.3,58.4-98.9
		C167.4-573.9,147.7-598.1,109-598.1 M109-395.3c-25.5,0-48.9-14.6-66-41c-15.7-24.3-24.3-56.2-24.3-90
		c0-65.1,33.8-103.9,90.4-103.9s90.4,38.8,90.4,103.9c0,33.7-8.6,65.7-24.3,90C157.9-409.8,134.5-395.3,109-395.3"/>
</g>
</svg>
