<?xml version="1.0" encoding="utf-8"?>
<!-- Generator: Adobe Illustrator 20.1.0, SVG Export Plug-In . SVG Version: 6.00 Build 0)  -->
<svg version="1.1"
	 id="svg2" xmlns:cc="http://creativecommons.org/ns#" xmlns:dc="http://purl.org/dc/elements/1.1/" xmlns:rdf="http://www.w3.org/1999/02/22-rdf-syntax-ns#" xmlns:svg="http://www.w3.org/2000/svg"
	 xmlns="http://www.w3.org/2000/svg" xmlns:xlink="http://www.w3.org/1999/xlink" x="0px" y="0px" width="1100.2px"
	 height="812.4px" viewBox="0 0 1100.2 812.4" style="enable-background:new 0 0 1100.2 812.4;" xml:space="preserve">
<style type="text/css">
	.st0{fill:#FFFFFF;}
</style>
<g id="g14">
	<g id="g20" transform="translate(184.873,34.4658)">
		<path id="path22" class="st0" d="M61.6,732c-0.5,0-0.9,0-1.4-0.1c-37.1-3.1-89.2-33.5-154.8-90.1c-47.6-41.1-84.5-80.7-86.1-82.4
			c-3.1-3.3-4.6-7.7-4.2-12.2c0.4-4.5,2.6-8.6,6.2-11.4c4.9-3.7,113.8-86.7,201.1-118.1c-27-86.6-33-206-33.2-211.4
			c-0.2-4.5,1.5-8.9,4.7-12.1c3.2-3.2,7.6-4.9,12.1-4.7c5.6,0.3,138.6,6.9,225.8,38c8.3,3,12.7,12.1,9.7,20.5
			c-3,8.3-12.1,12.7-20.5,9.7c-64.5-23.1-159.4-32.1-198.6-35c2.9,39.4,12.1,135.2,35.4,199.7c1.5,4.2,1.2,8.8-0.8,12.7
			c-2,3.9-5.5,6.9-9.8,8.1c-66.6,19.4-157.2,82.1-192,107.3C-96.4,600.2,6.9,695.3,62.9,700c8.8,0.7,15.3,8.5,14.6,17.3
			C76.8,725.7,69.9,732,61.6,732"/>
	</g>
	<g id="g24" transform="translate(271.8188,177.3608)">
		<path id="path26" class="st0" d="M90.6,398.5c-14.3,0-28.7-1.9-42.6-5.6c-27.5-7.4-52.8-22-73.1-42.3
			c-17.8-17.8-32.3-48-44.3-92.5c-2.3-8.5,2.7-17.3,11.3-19.6c8.5-2.3,17.3,2.7,19.6,11.3c13,47.9,26.7,69,36,78.3
			c32.9,32.9,79.5,45.8,124.6,34.7c8.6-2.1,17.2,3.1,19.4,11.7c2.1,8.6-3.1,17.2-11.7,19.4C117,397,103.8,398.5,90.6,398.5"/>
	</g>
	<g id="g28" transform="translate(298.8129,180.7236)">
		<path id="path30" class="st0" d="M99.6,390.7c-6.6,0-12.8-4.2-15.1-10.8C67.5,330.6,23,296-28.9,291.6c-12.5-1-36.1,1.7-78.1,20.7
			c-8,3.6-17.5,0.1-21.2-8c-3.6-8-0.1-17.5,8-21.2c39.3-17.8,70-25.4,93.9-23.4c64.5,5.4,119.9,48.5,141,109.8
			c2.9,8.4-1.6,17.5-9.9,20.3C103.1,390.4,101.3,390.7,99.6,390.7"/>
	</g>
	<g id="g32" transform="translate(640.2411,34.4663)">
		<path id="path34" class="st0" d="M213.4,732c-8.2,0-15.2-6.3-15.9-14.7c-0.7-8.8,5.8-16.5,14.6-17.3
			c56.1-4.7,159.4-99.8,207.7-149.5c-34.8-25.2-125.4-87.9-192-107.3c-4.2-1.2-7.8-4.2-9.8-8.1s-2.3-8.5-0.8-12.7
			c23.4-64.6,32.5-160.3,35.5-199.7c-39.2,2.9-134.1,12-198.6,35c-8.3,3-17.5-1.4-20.5-9.7c-3-8.3,1.4-17.5,9.7-20.5
			c87.1-31.2,220.2-37.8,225.8-38c4.5-0.2,8.9,1.5,12.1,4.7c3.2,3.2,4.9,7.6,4.7,12.1c-0.3,5.3-6.2,124.7-33.2,211.4
			c87.3,31.4,196.2,114.4,201.1,118.1c3.6,2.7,5.8,6.9,6.2,11.4c0.4,4.5-1.2,8.9-4.2,12.2c-1.5,1.7-38.5,41.3-86.1,82.4
			c-65.6,56.7-117.7,87-154.8,90.1C214.3,731.9,213.9,732,213.4,732"/>
	</g>
	<g id="g36" transform="translate(553.2934,177.3613)">
		<path id="path38" class="st0" d="M184.4,398.5c-13.2,0-26.4-1.6-39.3-4.8c-8.6-2.1-13.8-10.8-11.7-19.4
			c2.1-8.6,10.8-13.8,19.4-11.7c45.2,11.1,91.8-1.8,124.6-34.7c9.3-9.3,23.1-30.4,36-78.3c2.3-8.5,11.1-13.6,19.6-11.3
			c8.5,2.3,13.6,11.1,11.3,19.6c-12,44.5-26.5,74.8-44.3,92.5c-20.3,20.3-45.5,34.9-73.1,42.3C213.1,396.7,198.8,398.5,184.4,398.5"
			/>
	</g>
	<g id="g40" transform="translate(526.2997,180.7246)">
		<path id="path42" class="st0" d="M175.4,390.7c-1.7,0-3.5-0.3-5.2-0.9c-8.4-2.9-12.8-12-9.9-20.3c21.1-61.2,76.4-104.3,141-109.8
			c24-2,54.7,5.6,93.9,23.4c8.1,3.6,11.6,13.1,8,21.2c-3.6,8-13.1,11.6-21.2,8c-41.9-19-65.6-21.7-78.1-20.7
			c-51.9,4.4-96.4,39-113.4,88.3C188.3,386.5,182.1,390.7,175.4,390.7"/>
	</g>
	<g id="g44" transform="translate(411.8315,407.6772)">
		<path id="path46" class="st0" d="M137.3-138.9c-25,0-36.7,13.1-36.7,41.3c0,32.3,16.8,59.6,36.7,59.6S174-65.2,174-97.6
			C174-125.7,162.3-138.9,137.3-138.9 M137.3-5.9c-19.2,0-37.6-10.6-50.4-29C75.1-51.9,68.6-74.1,68.6-97.6
			c0-45.9,25.7-73.3,68.7-73.3c43,0,68.7,27.4,68.7,73.3c0,23.4-6.5,45.7-18.3,62.6C174.8-16.5,156.5-5.9,137.3-5.9"/>
	</g>
	<g id="g48" transform="translate(240.7758)">
		<path id="path50" class="st0" d="M80.3,812.4c-27.7,0-51.9-11-66.9-31.4c-17.4-23.7-18.2-54.1-2-79.5
			c32.8-51.6,87.7-61.4,131.8-69.3c19.5-3.5,37.9-6.8,48.1-13.1c5.6-3.5,24.3-21.7,29.8-110.4c2.5-39.4,1.3-76.8,0.6-91.5
			c-15-14.1-56.6-57.2-63.4-109.5c-16.3-125.2,38.6-176,74.9-209.7c15.3-14.1,27.3-25.3,28.6-36.4c1.5-13.2-12.5-29.1-17.5-33.7
			c-6.5-5.9-7.1-16-1.2-22.6c5.9-6.6,15.9-7.2,22.5-1.3c3.3,2.9,31.7,29.2,28,61.2c-2.6,22.9-20.1,39.1-38.7,56.2
			c-35.3,32.6-79.1,73.2-64.9,182c6.6,50.6,57.1,93.5,57.6,94c3.4,2.8,5.4,6.9,5.7,11.3c0.1,2,2.9,49.6-0.3,101.9
			c-4.7,75.4-19.4,119.7-44.9,135.5c-15.4,9.6-35.8,13.2-59.3,17.4c-39.9,7.1-85.2,15.2-110.4,55c-8.9,14-8.6,30.6,0.8,43.4
			c4.7,6.3,23,26.1,62.9,15.3c26.9-7.3,69-37.4,109.7-66.6c53.8-38.5,104.6-74.9,143.1-79.4c8.8-1,16.7,5.3,17.7,14.1
			c1,8.8-5.3,16.7-14.1,17.7c-30.3,3.5-82.2,40.7-128.1,73.6c-45,32.3-87.5,62.7-120,71.5C100.1,811,90,812.4,80.3,812.4"/>
	</g>
	<g id="g52" transform="translate(582.8846)">
		<path id="path54" class="st0" d="M194.3,812.4c-9.7,0-19.9-1.4-30.2-4.1c-32.4-8.8-74.9-39.2-120-71.5
			c-45.9-32.9-97.8-70.1-128.1-73.6c-8.8-1-15.1-8.9-14.1-17.7c1-8.8,8.9-15.1,17.7-14.1c38.5,4.4,89.3,40.8,143.1,79.4
			c40.7,29.2,82.8,59.4,109.7,66.6c40,10.8,58.3-9,62.9-15.3c9.4-12.8,9.7-29.4,0.8-43.4c-25.3-39.7-70.5-47.8-110.4-55
			c-23.6-4.2-44-7.9-59.3-17.4C41,630.4,26.3,586,21.6,510.7c-3.3-52.3-0.4-99.9-0.3-101.9c0.3-4.4,2.3-8.5,5.7-11.3
			c0.5-0.4,51.1-43.7,57.6-94c14.2-108.8-29.7-149.4-64.9-182c-18.5-17.1-36-33.3-38.7-56.2C-22.8,33.3,5.7,6.9,9,4
			c6.6-5.9,16.7-5.3,22.6,1.3s5.3,16.7-1.3,22.6c-5,4.5-19,20.4-17.5,33.6C14,72.7,26.1,83.9,41.3,98
			c36.3,33.6,91.3,84.4,74.9,209.7c-6.8,52.4-48.4,95.4-63.4,109.5c-0.6,14.7-1.8,52.3,0.7,91.8c5.6,88.4,24.2,106.6,29.8,110.1
			c10.2,6.3,28.6,9.6,48.1,13.1c44.1,7.9,99,17.7,131.8,69.3c16.2,25.4,15.4,55.9-2,79.5C246.2,801.4,222,812.4,194.3,812.4"/>
	</g>
</g>
</svg>
