<?xml version="1.0" encoding="UTF-8" standalone="no"?>
<svg
   xmlns:dc="http://purl.org/dc/elements/1.1/"
   xmlns:cc="http://creativecommons.org/ns#"
   xmlns:rdf="http://www.w3.org/1999/02/22-rdf-syntax-ns#"
   xmlns:svg="http://www.w3.org/2000/svg"
   xmlns="http://www.w3.org/2000/svg"
   viewBox="0 0 872.02399 872.1507"
   height="872.1507"
   width="872.02399"
   xml:space="preserve"
   id="svg2"
   version="1.1"><metadata
     id="metadata8"><rdf:RDF><cc:Work
         rdf:about=""><dc:format>image/svg+xml</dc:format><dc:type
           rdf:resource="http://purl.org/dc/dcmitype/StillImage" /></cc:Work></rdf:RDF></metadata><defs
     id="defs6"><clipPath
       id="clipPath18"
       clipPathUnits="userSpaceOnUse"><path
         id="path16"
         d="M 0,654.113 H 654.018 V 0 H 0 Z" /></clipPath></defs><g
     transform="matrix(1.3333333,0,0,-1.3333333,0,872.15067)"
     id="g10"><g
       id="g12"><g
         clip-path="url(#clipPath18)"
         id="g14"><g
           transform="translate(136.8203,201.352)"
           id="g20"><path
             id="path22"
             style="fill:#cea220;fill-opacity:1;fill-rule:nonzero;stroke:none"
             d="m 0,0 c -10.293,0 -17.099,0.55 -18.121,0.639 -6.112,0.528 -10.842,5.581 -10.965,11.715 -0.05,2.501 -0.747,62.064 41.005,132.442 23.165,39.053 56.711,65.464 102.552,80.744 31.69,10.563 44.617,29.823 44.617,66.477 0,6.628 5.373,12 12,12 6.627,0 12,-5.372 12,-12 0,-47.009 -19.392,-75.368 -61.027,-89.246 C 81.93,189.396 52.654,166.426 32.56,132.552 4.528,85.301 -2.645,43.375 -4.472,24.079 c 24.992,-0.396 83.809,2.228 110.085,33.282 35.663,42.147 49.113,89.02 53.955,113.209 1.302,6.498 7.632,10.708 14.122,9.411 6.499,-1.301 10.712,-7.624 9.412,-14.122 C 177.805,139.404 163.076,88.116 123.934,41.858 92.684,4.926 30.778,0.001 0,0" /></g><g
           transform="translate(517.1992,201.352)"
           id="g24"><path
             id="path26"
             style="fill:#cea220;fill-opacity:1;fill-rule:nonzero;stroke:none"
             d="m 0,0 c -30.776,0 -92.683,4.923 -123.937,41.858 -39.854,47.1 -51.619,94.451 -57.003,125.97 -1.115,6.533 3.277,12.733 9.809,13.849 6.53,1.115 12.734,-3.276 13.85,-9.809 3.127,-18.314 11.435,-66.964 51.665,-114.507 26.261,-31.034 85.05,-33.668 110.052,-33.282 -1.876,19.365 -9.119,61.478 -36.998,108.472 -20.095,33.875 -49.372,56.845 -89.502,70.22 -41.634,13.878 -61.026,42.237 -61.026,89.247 0,6.628 5.372,12 12,12 6.627,0 12,-5.372 12,-12 0,-36.655 12.926,-55.915 44.616,-66.478 45.841,-15.28 79.386,-41.691 102.553,-80.744 C 29.831,74.418 29.135,14.855 29.085,12.354 28.962,6.22 24.232,1.167 18.12,0.639 17.099,0.55 10.288,0 0,0" /></g><g
           transform="translate(642.0185)"
           id="g28"><path
             id="path30"
             style="fill:#cea220;fill-opacity:1;fill-rule:nonzero;stroke:none"
             d="m 0,0 h -630.018 c -6.628,0 -12,5.373 -12,12 0,6.627 5.372,12 12,12 H 0 C 6.627,24 12,18.627 12,12 12,5.373 6.627,0 0,0" /></g><g
           transform="translate(204.0859,99.8018)"
           id="g32"><path
             id="path34"
             style="fill:#cea220;fill-opacity:1;fill-rule:nonzero;stroke:none"
             d="m 0,0 c -4.273,0 -8.409,2.288 -10.576,6.313 -3.143,5.835 -0.959,13.113 4.876,16.255 36.632,19.725 55.856,68.952 58.77,150.496 0.237,6.623 5.794,11.811 12.421,11.563 6.623,-0.236 11.801,-5.797 11.564,-12.421 C 75.435,126.891 69.096,91.243 57.673,63.227 45.958,34.496 28.465,13.706 5.679,1.436 3.869,0.462 1.921,0 0,0" /></g><g
           transform="translate(449.9316,99.8018)"
           id="g36"><path
             id="path38"
             style="fill:#cea220;fill-opacity:1;fill-rule:nonzero;stroke:none"
             d="m 0,0 c -1.921,0 -3.868,0.462 -5.679,1.437 -22.785,12.269 -40.278,33.059 -51.992,61.79 -11.423,28.016 -17.763,63.664 -19.382,108.979 -0.237,6.624 4.941,12.185 11.564,12.421 0.146,0.006 0.292,0.008 0.436,0.008 6.43,0 11.753,-5.094 11.985,-11.571 C -50.154,91.52 -30.931,42.293 5.7,22.568 11.535,19.426 13.719,12.148 10.576,6.313 8.409,2.288 4.272,0 0,0" /></g><g
           transform="translate(162.79,24)"
           id="g40"><path
             id="path42"
             style="fill:#cea220;fill-opacity:1;fill-rule:nonzero;stroke:none"
             d="M 0,0 H 141.021 C 116.985,20.977 84.51,42.945 48.146,62.592 c -31.36,16.943 -76.882,37.139 -115.66,37.139 -13.424,0 -22.265,-2.483 -27.255,-4.518 1.008,-4.653 3.571,-12.185 10.032,-22.093 C -65.769,44.03 -28.773,17.585 0,0 M 170.549,-24 H -3.356 c -2.183,0 -4.324,0.595 -6.193,1.722 -114.656,69.081 -110.491,120.431 -109.638,126.058 0.436,2.887 1.911,5.514 4.145,7.392 1.531,1.286 15.866,12.559 47.528,12.559 35.16,0 77.912,-13.465 127.068,-40.023 50.502,-27.286 94.203,-59.237 119.897,-87.661 3.181,-3.519 3.99,-8.582 2.066,-12.917 -1.926,-4.336 -6.225,-7.13 -10.968,-7.13" /></g><g
           transform="translate(350.206,24)"
           id="g44"><path
             id="path46"
             style="fill:#cea220;fill-opacity:1;fill-rule:nonzero;stroke:none"
             d="m 0,0 h 141.022 c 28.772,17.585 65.767,44.03 84.736,73.12 6.46,9.907 9.022,17.439 10.031,22.092 -4.991,2.036 -13.833,4.519 -27.255,4.519 -38.777,0 -84.299,-20.196 -115.658,-37.139 C 56.513,42.946 24.036,20.977 0,0 M 144.378,-24 H -29.527 c -4.744,0 -9.042,2.794 -10.968,7.13 -1.925,4.335 -1.115,9.398 2.065,12.917 25.696,28.425 69.397,60.376 119.898,87.661 49.156,26.558 91.907,40.023 127.066,40.023 31.653,0 45.994,-11.271 47.526,-12.557 2.236,-1.878 3.711,-4.506 4.148,-7.394 0.853,-5.627 5.018,-56.977 -109.637,-126.058 -1.87,-1.127 -4.01,-1.722 -6.193,-1.722" /></g><g
           transform="translate(327.0078,630.1133)"
           id="g48"><path
             id="path50"
             style="fill:#cea220;fill-opacity:1;fill-rule:nonzero;stroke:none"
             d="m 0,0 c -29.049,0 -43.778,-18.142 -43.778,-53.92 0,-40.224 20.048,-74.205 43.778,-74.205 23.73,0 43.779,33.981 43.779,74.205 C 43.779,-18.142 29.05,0 0,0 m 0,-152.125 c -19.108,0 -36.693,10.913 -49.516,30.73 -11.776,18.2 -18.262,42.163 -18.262,67.475 0,48.791 25.337,77.92 67.778,77.92 42.441,0 67.779,-29.129 67.779,-77.92 0,-25.312 -6.485,-49.275 -18.262,-67.475 C 36.695,-141.212 19.109,-152.125 0,-152.125" /></g></g></g></g></svg>